<svg xmlns="http://www.w3.org/2000/svg" version="1.1" xmlns:xlink="http://www.w3.org/1999/xlink" width="512" height="512" x="0" y="0" viewBox="0 0 100 100" style="enable-background:new 0 0 512 512" xml:space="preserve" class=""><g><path d="M62.508 0h-15c-10.842 0-20 5-20 15v5c-16.077 0-15 21.533-15 25 0 15.187 8.648 24.605 15 28.26V95a5 5 0 0 0 5 5h40a5 5 0 0 0 5-5V73.606c6.666-3.946 10-15.442 10-23.606V30c0-20-10-30-25-30zm10 87.5h-30a2.502 2.502 0 0 1-2.5-2.5c0-1.38 1.121-2.5 2.5-2.5h30zm0-10h-30c-4.135 0-7.5 3.364-7.5 7.5s3.364 7.5 7.5 7.5h30V95h-40V75h40zm10-27.5c0 9.058-4.461 20-10 20H32.55c-2.596-.268-15.042-7.85-15.042-25 0 0-1.479-20.004 10.265-20.004.015 3.95 1.235 9.723 4.736 14.386V55h5V44.073C40.724 46.158 44.9 47.5 50.271 47.5c21.301 0 27.004-10.918 27.236-11.382l-4.458-2.263c-.188.351-4.813 8.645-22.778 8.645-17.208 0-17.759-16.863-17.764-17.578V15c0-9.517 12.495-10 15-10h15c16.53 0 20 13.594 20 25v20z" fill="#ff2a2a" opacity="1" data-original="#000000"></path></g></svg>