<svg xmlns="http://www.w3.org/2000/svg" version="1.1" xmlns:xlink="http://www.w3.org/1999/xlink" width="512" height="512" x="0" y="0" viewBox="0 0 511.928 511.928" style="enable-background:new 0 0 512 512" xml:space="preserve" class=""><g><path d="M115.689 349.573a60.687 60.687 0 0 1 39.364 18.142c3.746 4.514 5.12 6.417 6.246 8.064a259.88 259.88 0 0 0 24.243 27.776 163.404 163.404 0 0 0 27.102 23.893 68.532 68.532 0 0 1 22.827 36.531 25.516 25.516 0 0 0 12.091 47.949h136.533a25.523 25.523 0 0 0 17.425-44.245 245.245 245.245 0 0 1 6.741-10.752c18.5-27.776 18.5-46.857 18.5-81.536v-128a34.133 34.133 0 0 0-53.239-28.271 33.895 33.895 0 0 0-45.636-20.096c35.429-39.567 40.459-97.783 12.34-142.84S257.605-9.933 206.494 4.506s-86.537 60.908-86.923 114.018 34.361 100.088 85.257 115.269l-.043 73.335c-28.271-18.057-51.669-27.998-87.287-25.6-17.777.939-31.847 15.383-32.321 33.178-.473 17.796 12.81 32.967 30.512 34.849zm268.407 145.288H247.563a8.533 8.533 0 0 1 0-17.066h136.533c4.713 0 8.533 3.82 8.533 8.533s-3.82 8.533-8.533 8.533zM136.63 119.395c-.09-46.723 31.459-87.582 76.684-99.315s92.659 8.634 115.295 49.507c22.637 40.873 14.736 91.886-19.205 123.996a33.563 33.563 0 0 0-36.241-1.178v-4.429c32.008-15.813 48.915-51.582 40.818-86.352s-39.068-59.389-74.769-59.433-66.733 24.496-74.917 59.246 8.634 70.561 40.602 86.453v27.998c-40.987-14.339-68.388-53.071-68.267-96.493zm78.916-24.747a34.339 34.339 0 0 0-10.65 24.747v48.794a59.203 59.203 0 0 1-25.6-48.794c-.075-28.373 19.82-52.884 47.602-58.647s55.784 8.814 67 34.876c11.216 26.063 2.55 56.419-20.735 72.632v-47.411c.37-18.558-13.816-34.175-32.324-35.584a33.696 33.696 0 0 0-25.293 9.387zM102.599 313.639a17.211 17.211 0 0 1 16.017-15.044c31.044-2.108 51.106 6.409 77.056 22.946a17.186 17.186 0 0 0 17.442.495 17.008 17.008 0 0 0 8.764-14.908l.085-187.733a17.065 17.065 0 0 1 17.92-17.067c9.401 1.01 16.454 9.065 16.213 18.517v135.083c0 4.713 3.82 8.533 8.533 8.533s8.533-3.82 8.533-8.533v-34.133c0-9.426 7.641-17.067 17.067-17.067s17.067 7.641 17.067 17.067v42.667a8.533 8.533 0 0 0 17.066 0v-34.133c0-9.426 7.641-17.067 17.067-17.067s17.067 7.641 17.067 17.067v42.667c0 4.713 3.82 8.533 8.533 8.533s8.533-3.82 8.533-8.533v-25.6c0-9.426 7.641-17.067 17.067-17.067s17.067 7.641 17.067 17.067v128c0 33.382 0 48.64-15.633 72.064-3.174 4.762-5.845 9.156-8.32 13.431-.555 0-1.084-.162-1.647-.162H252.308a86.332 86.332 0 0 0-29.619-47.147 149.348 149.348 0 0 1-24.67-21.709 257.727 257.727 0 0 1-22.767-25.933c-1.306-1.869-2.816-4.011-7.014-9.088a77.385 77.385 0 0 0-50.603-24.243c-9.378-1.11-16.097-9.587-15.036-18.97z" fill="#ff5656" opacity="1" data-original="#000000" class=""></path></g></svg>
