<svg xmlns="http://www.w3.org/2000/svg" version="1.1" xmlns:xlink="http://www.w3.org/1999/xlink" width="512" height="512" x="0" y="0" viewBox="0 0 512 512" style="enable-background:new 0 0 512 512" xml:space="preserve" class=""><g><path d="M261.664 233.802c-13.522-13.522-17.649-32.869-12.402-49.959.581-1.893-1.437-3.553-3.156-2.571a49.906 49.906 0 0 0-12.761 10.436c-17.011 19.376-16.292 48.938 1.606 67.497 19.427 20.145 51.51 20.365 71.214.661a49.742 49.742 0 0 0 8.02-10.489c.987-1.726-.666-3.755-2.566-3.171-17.09 5.244-36.435 1.116-49.955-12.404zM231.104 363.553a63.702 63.702 0 0 1 35.887 35.887c.779 1.976 3.576 1.976 4.355 0a63.702 63.702 0 0 1 35.887-35.887h-76.129zM356.818 395.194c.541-1.372 2.484-1.372 3.025 0a44.244 44.244 0 0 0 24.925 24.925c1.372.541 1.372 2.484 0 3.025a44.244 44.244 0 0 0-24.925 24.925c-.541 1.372-2.484 1.372-3.025 0a44.244 44.244 0 0 0-24.925-24.925c-1.372-.541-1.372-2.484 0-3.025a44.247 44.247 0 0 0 24.925-24.925z" fill="#3cbc60" opacity="1" data-original="#000000"></path><path d="M357.509 353.98H154.49c-11.046 0-20-8.954-20-20v0c0-11.046 8.954-20 20-20h203.019c11.046 0 20 8.954 20 20v0c0 11.045-8.954 20-20 20zM293.997 168 406.756 62.065c13.703-12.874-1.728-34.869-18.497-26.364L251.61 105.008a131.068 131.068 0 0 0-68.274 86.778L154.49 313.98h205.438l-39.665-168.025M357.509 353.98 502 442.307c-75.016 47.861-170.984 47.861-246 0h0c-75.016-47.861-170.984-47.861-246 0l144.74-88.327" style="stroke-width:20;stroke-linecap:round;stroke-linejoin:round;stroke-miterlimit:10;" fill="none" stroke="#3cbc60" stroke-width="20" stroke-linecap="round" stroke-linejoin="round" stroke-miterlimit="10" data-original="#000000"></path><path d="M256 442.307c-75.016 47.861-170.984 47.861-246 0" style="stroke-width:20;stroke-linecap:round;stroke-linejoin:round;stroke-miterlimit:10;" fill="none" stroke="#3cbc60" stroke-width="20" stroke-linecap="round" stroke-linejoin="round" stroke-miterlimit="10" data-original="#000000"></path></g></svg>