<svg width="27" height="26" viewBox="0 0 27 26" fill="none" xmlns="http://www.w3.org/2000/svg">
<path d="M18.6147 1.08344C18.6147 1.08344 16.8425 1.12636 15.2175 2.75136C13.5925 4.37636 13.8666 6.5655 13.8666 6.5655C13.8666 6.5655 15.4752 6.85965 17.192 5.14286C18.9088 3.42608 18.6147 1.08344 18.6147 1.08344Z" fill="#090A0A"/>
<path d="M14.0524 7.95125C12.8546 7.94306 12.1188 6.9088 10.0788 6.9088C8.24325 6.9088 6.40318 8.09307 5.62078 9.23899C4.84201 10.3796 4.16748 11.6305 4.16748 14.1692C4.16748 16.7078 5.38982 21.0739 8.39557 24.0295C8.91032 24.5357 9.59171 24.9162 10.3691 24.9397C11.7672 24.9821 12.6257 23.9355 14.3917 23.9355C16.1577 23.9355 16.6892 24.9397 18.2835 24.9397C19.0085 24.9397 19.8353 24.6095 20.6382 23.7557C21.6684 22.6601 22.9468 20.5735 23.5979 18.572C23.5979 18.572 20.3371 17.3127 20.3766 13.6827C20.4093 10.6739 22.9643 9.194 22.9643 9.194C22.9643 9.194 21.4721 6.81476 18.2998 6.81476C16.1087 6.83114 15.1275 7.95861 14.0524 7.95125Z" fill="#090A0A"/>
</svg>
