<svg width="26" height="26" viewBox="0 0 26 26" fill="none" xmlns="http://www.w3.org/2000/svg">
<path fill-rule="evenodd" clip-rule="evenodd" d="M2.4375 8.88337C2.4375 5.92175 4.83837 3.52087 7.8 3.52087H18.2C21.1616 3.52087 23.5625 5.92175 23.5625 8.88337V16.0334C23.5625 18.995 21.1616 21.3959 18.2 21.3959H17.5962C16.9497 21.3959 16.3297 21.6527 15.8726 22.1098L14.4938 23.4887C13.6688 24.3136 12.3312 24.3136 11.5062 23.4887L10.1274 22.1098C9.67026 21.6527 9.05027 21.3959 8.40381 21.3959H7.8C4.83837 21.3959 2.4375 18.995 2.4375 16.0334V8.88337ZM7.8 5.14587C5.73584 5.14587 4.0625 6.81921 4.0625 8.88337V16.0334C4.0625 18.0975 5.73584 19.7709 7.8 19.7709H8.40381C9.48125 19.7709 10.5146 20.1989 11.2764 20.9608L12.6553 22.3396C12.8457 22.53 13.1543 22.53 13.3447 22.3396L14.7236 20.9608C15.4854 20.1989 16.5188 19.7709 17.5962 19.7709H18.2C20.2642 19.7709 21.9375 18.0975 21.9375 16.0334V8.88337C21.9375 6.81921 20.2642 5.14587 18.2 5.14587H7.8Z" fill="#12131A"/>
<path fill-rule="evenodd" clip-rule="evenodd" d="M14.3542 13C14.3542 12.5513 14.718 12.1875 15.1667 12.1875H17.3334C17.7821 12.1875 18.1459 12.5513 18.1459 13C18.1459 13.4487 17.7821 13.8125 17.3334 13.8125H15.1667C14.718 13.8125 14.3542 13.4487 14.3542 13Z" fill="#12131A"/>
<path fill-rule="evenodd" clip-rule="evenodd" d="M7.85425 13C7.85425 12.5513 8.21802 12.1875 8.66675 12.1875H10.8334C11.2821 12.1875 11.6459 12.5513 11.6459 13C11.6459 13.4487 11.2821 13.8125 10.8334 13.8125H8.66675C8.21802 13.8125 7.85425 13.4487 7.85425 13Z" fill="#12131A"/>
</svg>
