<svg width="35" height="35" viewBox="0 0 35 35" fill="none" xmlns="http://www.w3.org/2000/svg">
<path d="M12.6333 26.3334H21.3667C23.6667 26.3334 24.5833 24.925 24.6917 23.2084L25.125 16.325C25.2417 14.525 23.8083 13 22 13C21.4917 13 21.025 12.7084 20.7917 12.2584L20.1917 11.05C19.8083 10.2917 18.8083 9.66669 17.9583 9.66669H16.05C15.1917 9.66669 14.1917 10.2917 13.8083 11.05L13.2083 12.2584C12.975 12.7084 12.5083 13 12 13C10.1917 13 8.75833 14.525 8.875 16.325L9.30833 23.2084C9.40833 24.925 10.3333 26.3334 12.6333 26.3334Z" stroke="#777983" stroke-width="1.5" stroke-linecap="round" stroke-linejoin="round"/>
<path d="M15.75 14.6667H18.25" stroke="#777983" stroke-width="1.5" stroke-linecap="round" stroke-linejoin="round"/>
<path d="M17 23C18.4917 23 19.7083 21.7833 19.7083 20.2917C19.7083 18.8 18.4917 17.5833 17 17.5833C15.5083 17.5833 14.2917 18.8 14.2917 20.2917C14.2917 21.7833 15.5083 23 17 23Z" stroke="#777983" stroke-width="1.5" stroke-linecap="round" stroke-linejoin="round"/>
<rect x="0.5" y="0.5" width="34" height="34" rx="9.5" stroke="#9395A4"/>
</svg>
