<svg width="26" height="26" viewBox="0 0 26 26" fill="none" xmlns="http://www.w3.org/2000/svg">
<path d="M4.17406 14.3822C1.87181 14.3822 0 16.254 0 18.5563C0 20.8585 1.87181 22.7303 4.17406 22.7303C6.47632 22.7303 8.34812 20.8585 8.34812 18.5563C8.34812 16.254 6.47632 14.3822 4.17406 14.3822ZM4.17406 21.1064C2.77184 21.1064 1.63049 19.965 1.63049 18.5628C1.63049 17.1606 2.77184 16.0192 4.17406 16.0192C5.57628 16.0192 6.71763 17.1606 6.71763 18.5628C6.71763 19.965 5.57628 21.1064 4.17406 21.1064Z" fill="#12131A"/>
<path d="M21.1246 14.3823C18.8223 14.3823 16.9505 16.2541 16.9505 18.5563C16.9505 18.615 16.9505 18.6737 16.957 18.7324H10.859C10.859 18.6737 10.859 18.615 10.859 18.5563C10.859 15.8693 9.28718 13.4953 6.87405 12.4387L9.82851 3.79712H12.046C12.496 3.79712 12.8612 3.43189 12.8612 2.98187C12.8612 2.53186 12.496 2.16663 12.046 2.16663H9.24805C8.90239 2.16663 8.58933 2.38837 8.47846 2.72099L5.09356 12.6409C5.00877 12.8822 5.08051 13.2018 5.23052 13.417C5.33487 13.567 5.48487 13.6779 5.66097 13.7366C7.80017 14.3888 9.23501 16.3323 9.23501 18.5694C9.23501 18.6803 9.22848 18.7911 9.21544 18.9346C9.2024 19.1172 9.25457 19.2998 9.3524 19.4564L9.7372 20.0238C9.8872 20.2455 10.1416 20.376 10.409 20.376H17.3614C18.0331 21.7782 19.468 22.75 21.118 22.75C23.4203 22.75 25.2921 20.8782 25.2921 18.5759C25.2921 16.2736 23.4203 14.4018 21.118 14.4018L21.1246 14.3823ZM21.1246 21.1064C19.7223 21.1064 18.581 19.9651 18.581 18.5629C18.581 17.1606 19.7223 16.0193 21.1246 16.0193C22.5268 16.0193 23.6681 17.1606 23.6681 18.5629C23.6681 19.9651 22.5268 21.1064 21.1246 21.1064Z" fill="#12131A"/>
<path d="M14.9336 16.25C14.8273 16.25 14.7211 16.2245 14.6148 16.1735C14.2488 15.9822 14.0894 15.5103 14.2665 15.1086L15.5771 12.1371H11.4209L13.6112 6.96566C13.7824 6.56394 14.2193 6.39177 14.5912 6.57031C14.9631 6.75524 15.1225 7.22711 14.9572 7.62883L13.7234 10.5429H17.9209L15.6066 15.7909C15.4827 16.0778 15.217 16.2436 14.9395 16.2436L14.9336 16.25Z" fill="#12131A"/>
</svg>
