<svg width="25" height="24" viewBox="0 0 25 24" fill="none" xmlns="http://www.w3.org/2000/svg">
<g clip-path="url(#clip0_892_15386)">
<path d="M23.796 12.2762C23.796 11.4605 23.7299 10.6403 23.5888 9.83783H12.27V14.4588H18.7517C18.4828 15.9492 17.6185 17.2676 16.3531 18.1053V21.1037H20.22C22.4909 19.0137 23.796 15.9271 23.796 12.2762Z" fill="#4285F4"/>
<path d="M12.2699 24.0008C15.5063 24.0008 18.2357 22.9382 20.2243 21.1039L16.3573 18.1055C15.2815 18.8375 13.8925 19.252 12.2743 19.252C9.14367 19.252 6.48925 17.1399 5.53683 14.3003H1.54639V17.3912C3.5835 21.4434 7.73268 24.0008 12.2699 24.0008Z" fill="#34A853"/>
<path d="M5.53256 14.3004C5.0299 12.81 5.0299 11.1962 5.53256 9.70587V6.61493H1.54652C-0.155481 10.0057 -0.155481 14.0006 1.54652 17.3913L5.53256 14.3004Z" fill="#FBBC04"/>
<path d="M12.2699 4.74966C13.9807 4.7232 15.6342 5.36697 16.8732 6.54867L20.2993 3.12262C18.1299 1.0855 15.2506 -0.034466 12.2699 0.000808666C7.73268 0.000808666 3.5835 2.55822 1.54639 6.61481L5.53242 9.70575C6.48043 6.86173 9.13926 4.74966 12.2699 4.74966Z" fill="#EA4335"/>
</g>
<defs>
<clipPath id="clip0_892_15386">
<rect width="24" height="24" fill="white" transform="translate(0.0825195)"/>
</clipPath>
</defs>
</svg>
