<svg width="35" height="35" viewBox="0 0 35 35" fill="none" xmlns="http://www.w3.org/2000/svg">
<path d="M14.5 26.3334H19.5C23.6667 26.3334 25.3333 24.6667 25.3333 20.5V15.5C25.3333 11.3334 23.6667 9.66669 19.5 9.66669H14.5C10.3333 9.66669 8.66666 11.3334 8.66666 15.5V20.5C8.66666 24.6667 10.3333 26.3334 14.5 26.3334Z" stroke="#777983" stroke-width="1.5" stroke-linecap="round" stroke-linejoin="round"/>
<path d="M14.5 16.3333C15.4205 16.3333 16.1667 15.5871 16.1667 14.6667C16.1667 13.7462 15.4205 13 14.5 13C13.5795 13 12.8333 13.7462 12.8333 14.6667C12.8333 15.5871 13.5795 16.3333 14.5 16.3333Z" stroke="#777983" stroke-width="1.5" stroke-linecap="round" stroke-linejoin="round"/>
<path d="M9.225 23.7917L13.3333 21.0333C13.9917 20.5917 14.9417 20.6417 15.5333 21.15L15.8083 21.3917C16.4583 21.95 17.5083 21.95 18.1583 21.3917L21.625 18.4167C22.275 17.8583 23.325 17.8583 23.975 18.4167L25.3333 19.5833" stroke="#777983" stroke-width="1.5" stroke-linecap="round" stroke-linejoin="round"/>
<rect x="0.5" y="0.5" width="34" height="34" rx="9.5" stroke="#9395A4"/>
</svg>
