<svg width="150" height="152" viewBox="0 0 150 152" fill="none" xmlns="http://www.w3.org/2000/svg">
<rect x="16" y="25" width="119" height="101" fill="white"/>
<path fill-rule="evenodd" clip-rule="evenodd" d="M32.7536 4.75801C46.6608 1.58597 60.8301 0 74.9987 0C89.1674 0 103.337 1.58597 117.244 4.75801C124.219 6.79156 130.119 9.81679 135.557 14.7883C141.229 19.9733 143.682 25.8854 145.299 33.1473C151.567 61.2957 151.567 90.5042 145.299 118.653C144.089 124.089 142.409 128.769 139.262 132.954V132.957H139.261C138.204 134.362 136.983 135.711 135.557 137.014C130.119 141.984 124.218 145.008 117.244 147.043C89.4295 153.385 60.568 153.385 32.7536 147.043C16.4522 143.325 8.37439 135.15 4.70072 118.653C-1.56691 90.5043 -1.56691 61.2958 4.70072 33.1474C8.37439 16.6503 16.4522 8.47468 32.7536 4.75801ZM99.3227 50.5036C99.3227 41.4051 106.005 34.0803 114.304 34.0803C122.604 34.0803 129.285 41.4051 129.285 50.5036V101.082C129.285 110.18 122.604 117.505 114.304 117.505C106.352 117.505 99.9108 110.773 99.3836 102.207C99.1952 97.9295 95.7002 94.54 91.3746 94.54H56.9939C52.7346 94.54 49.2798 97.8262 48.9948 102.011H48.9757C48.6344 110.773 42.1065 117.72 34.0269 117.72C25.7273 117.72 19.0455 110.395 19.0455 101.297V50.7177C19.0455 41.6192 25.7273 34.2944 34.0269 34.2944C42.3265 34.2944 49.0083 41.6192 49.0083 50.7177V70.1662C49.006 70.2109 49.003 70.2554 49 70.2999C48.9937 70.3938 48.9874 70.4877 48.9874 70.5832V70.8385C48.9874 75.2149 52.5105 78.738 56.8869 78.738H91.4023C95.7787 78.738 99.3018 75.2149 99.3018 70.8385V70.7106H99.3227V50.5036Z" fill="#660080"/>
</svg>
