<svg width="35" height="35" viewBox="0 0 35 35" fill="none" xmlns="http://www.w3.org/2000/svg">
<path d="M14.9167 19.4583C14.9167 20.2667 15.5417 20.9167 16.3083 20.9167H17.875C18.5417 20.9167 19.0833 20.35 19.0833 19.6417C19.0833 18.8833 18.75 18.6083 18.2583 18.4333L15.75 17.5583C15.2583 17.3833 14.925 17.1167 14.925 16.35C14.925 15.65 15.4667 15.075 16.1333 15.075H17.7C18.4667 15.075 19.0917 15.725 19.0917 16.5333" stroke="#777983" stroke-width="1.5" stroke-linecap="round" stroke-linejoin="round"/>
<path d="M17 14.25V21.75" stroke="#777983" stroke-width="1.5" stroke-linecap="round" stroke-linejoin="round"/>
<path d="M25.3333 18C25.3333 22.6 21.6 26.3334 17 26.3334C12.4 26.3334 8.66666 22.6 8.66666 18C8.66666 13.4 12.4 9.66669 17 9.66669" stroke="#777983" stroke-width="1.5" stroke-linecap="round" stroke-linejoin="round"/>
<path d="M25.3333 13V9.66669H22" stroke="#777983" stroke-width="1.5" stroke-linecap="round" stroke-linejoin="round"/>
<path d="M21.1667 13.8334L25.3333 9.66669" stroke="#777983" stroke-width="1.5" stroke-linecap="round" stroke-linejoin="round"/>
<rect x="0.5" y="0.5" width="34" height="34" rx="9.5" stroke="#9395A4"/>
</svg>
