<svg width="125" height="125" viewBox="0 0 125 125" fill="none" xmlns="http://www.w3.org/2000/svg">
<path d="M54.6353 11.6146L28.6457 21.4063C22.6561 23.6458 17.7603 30.7292 17.7603 37.0833V75.7813C17.7603 81.9271 21.8228 90 26.7707 93.6979L49.1665 110.417C56.5102 115.938 68.5936 115.938 75.9373 110.417L98.3332 93.6979C103.281 90 107.344 81.9271 107.344 75.7813V37.0833C107.344 30.6771 102.448 23.5938 96.4582 21.3542L70.4686 11.6146C66.0415 10 58.9582 10 54.6353 11.6146Z" stroke="#292D32" stroke-width="8" stroke-linecap="round" stroke-linejoin="round"/>
<path d="M54.6353 11.6146L28.6457 21.4063C22.6561 23.6458 17.7603 30.7292 17.7603 37.0833V75.7813C17.7603 81.9271 21.8228 90 26.7707 93.6979L49.1665 110.417C56.5102 115.938 68.5936 115.938 75.9373 110.417L98.3332 93.6979C103.281 90 107.344 81.9271 107.344 75.7813V37.0833C107.344 30.6771 102.448 23.5938 96.4582 21.3542L70.4686 11.6146C66.0415 10 58.9582 10 54.6353 11.6146Z" stroke="url(#paint0_linear_956_15731)" stroke-width="8" stroke-linecap="round" stroke-linejoin="round"/>
<path d="M62.5002 65.1042C68.2531 65.1042 72.9168 60.4405 72.9168 54.6875C72.9168 48.9345 68.2531 44.2708 62.5002 44.2708C56.7472 44.2708 52.0835 48.9345 52.0835 54.6875C52.0835 60.4405 56.7472 65.1042 62.5002 65.1042Z" stroke="black" stroke-width="6" stroke-miterlimit="10" stroke-linecap="round" stroke-linejoin="round"/>
<path d="M62.5 65.1042V80.7292" stroke="black" stroke-width="6" stroke-miterlimit="10" stroke-linecap="round" stroke-linejoin="round"/>
<defs>
<linearGradient id="paint0_linear_956_15731" x1="62.5519" y1="10.4036" x2="62.5519" y2="114.557" gradientUnits="userSpaceOnUse">
<stop stop-color="#0F89FF"/>
<stop offset="1" stop-color="#C198FF"/>
</linearGradient>
</defs>
</svg>
