<svg width="20" height="20" viewBox="0 0 20 20" fill="none" xmlns="http://www.w3.org/2000/svg">
<path d="M2 3.75C2 2.50736 3.00736 1.5 4.25 1.5L6.25 1.5C6.66421 1.5 7 1.16421 7 0.749999C7 0.335786 6.66421 -5.82926e-07 6.25 -6.01032e-07L4.25 -6.88454e-07C2.17893 -7.78984e-07 0.5 1.67893 0.5 3.75L0.5 5.75C0.5 6.16421 0.835787 6.5 1.25 6.5C1.66421 6.5 2 6.16421 2 5.75L2 3.75Z" fill="black"/>
<path d="M12.75 10.5C13.1642 10.5 13.5 10.1642 13.5 9.75C13.5 9.33579 13.1642 9 12.75 9L7.75 9C7.33579 9 7 9.33579 7 9.75C7 10.1642 7.33579 10.5 7.75 10.5L12.75 10.5Z" fill="black"/>
<path d="M16.25 1.5C17.4926 1.5 18.5 2.50736 18.5 3.75L18.5 5.75C18.5 6.16421 18.8358 6.5 19.25 6.5C19.6642 6.5 20 6.16421 20 5.75L20 3.75C20 1.67893 18.3211 -7.33885e-08 16.25 -1.63918e-07L14.25 -2.5134e-07C13.8358 -2.69446e-07 13.5 0.335786 13.5 0.75C13.5 1.16421 13.8358 1.5 14.25 1.5L16.25 1.5Z" fill="black"/>
<path d="M18.5 15.75C18.5 16.9926 17.4926 18 16.25 18L14.25 18C13.8358 18 13.5 18.3358 13.5 18.75C13.5 19.1642 13.8358 19.5 14.25 19.5L16.25 19.5C18.3211 19.5 20 17.8211 20 15.75L20 13.75C20 13.3358 19.6642 13 19.25 13C18.8358 13 18.5 13.3358 18.5 13.75L18.5 15.75Z" fill="black"/>
<path d="M2 15.75C2 16.9926 3.00736 18 4.25 18L6.25 18C6.66421 18 7 18.3358 7 18.75C7 19.1642 6.66421 19.5 6.25 19.5L4.25 19.5C2.17893 19.5 0.499999 17.8211 0.499999 15.75L0.499999 13.75C0.499999 13.3358 0.835786 13 1.25 13C1.66421 13 2 13.3358 2 13.75L2 15.75Z" fill="black"/>
</svg>
