<svg width="35" height="35" viewBox="0 0 35 35" fill="none" xmlns="http://www.w3.org/2000/svg">
<path d="M25.275 18.7166C25.2583 18.875 25.2333 19.025 25.1917 19.175C24.325 18.4416 23.2 18 21.975 18C19.2167 18 16.975 20.2416 16.975 23C16.975 24.225 17.4167 25.35 18.15 26.2166C18 26.2583 17.85 26.2833 17.6917 26.3C16.9833 26.3666 16.2583 26.3333 15.5083 26.2083C12.0833 25.625 9.325 22.85 8.75833 19.4166C7.81667 13.7083 12.6833 8.84164 18.3917 9.78331C21.825 10.35 24.6 13.1083 25.1833 16.5333C25.3083 17.2833 25.3417 18.0083 25.275 18.7166Z" stroke="#777983" stroke-width="1.5" stroke-linecap="round" stroke-linejoin="round"/>
<path d="M25.1917 19.175C25.075 19.5833 24.8583 19.95 24.55 20.2583L19.2333 25.575C18.925 25.8833 18.5583 26.1 18.15 26.2167C17.4167 25.35 16.975 24.225 16.975 23C16.975 20.2417 19.2167 18 21.975 18C23.2 18 24.325 18.4417 25.1917 19.175Z" stroke="#777983" stroke-width="1.5" stroke-linecap="round" stroke-linejoin="round"/>
<rect x="0.5" y="0.5" width="34" height="34" rx="9.5" stroke="#9395A4"/>
</svg>
