<svg width="35" height="35" viewBox="0 0 35 35" fill="none" xmlns="http://www.w3.org/2000/svg">
<path d="M17 23.8334C19.7583 23.8334 22 21.5917 22 18.8334V14.6667C22 11.9084 19.7583 9.66669 17 9.66669C14.2417 9.66669 12 11.9084 12 14.6667V18.8334C12 21.5917 14.2417 23.8334 17 23.8334Z" stroke="#777983" stroke-width="1.5" stroke-linecap="round" stroke-linejoin="round"/>
<path d="M9.5 17.1667V18.8333C9.5 22.975 12.8583 26.3333 17 26.3333C21.1417 26.3333 24.5 22.975 24.5 18.8333V17.1667" stroke="#777983" stroke-width="1.5" stroke-linecap="round" stroke-linejoin="round"/>
<path d="M14.5917 14.2333C16.075 13.6917 17.6917 13.6917 19.175 14.2333" stroke="#777983" stroke-width="1.5" stroke-linecap="round" stroke-linejoin="round"/>
<path d="M15.3583 16.7333C16.3583 16.4583 17.4167 16.4583 18.4167 16.7333" stroke="#777983" stroke-width="1.5" stroke-linecap="round" stroke-linejoin="round"/>
<rect x="0.5" y="0.5" width="34" height="34" rx="9.5" stroke="#9395A4"/>
</svg>
