<svg width="26" height="26" viewBox="0 0 26 26" fill="none" xmlns="http://www.w3.org/2000/svg">
<path fill-rule="evenodd" clip-rule="evenodd" d="M2.4375 8.66667C2.4375 5.22639 5.22639 2.4375 8.66667 2.4375H17.3333C20.7736 2.4375 23.5625 5.22639 23.5625 8.66667V17.3333C23.5625 20.7736 20.7736 23.5625 17.3333 23.5625H8.66667C5.22639 23.5625 2.4375 20.7736 2.4375 17.3333V8.66667ZM8.66667 4.0625C6.12386 4.0625 4.0625 6.12386 4.0625 8.66667V17.3333C4.0625 19.8761 6.12386 21.9375 8.66667 21.9375H17.3333C19.8761 21.9375 21.9375 19.8761 21.9375 17.3333V8.66667C21.9375 6.12386 19.8761 4.0625 17.3333 4.0625H8.66667Z" fill="#12131A"/>
<path fill-rule="evenodd" clip-rule="evenodd" d="M13.2708 13.5417C13.2708 11.5972 14.8471 10.0209 16.7916 10.0209H22.7499C23.1987 10.0209 23.5624 10.3846 23.5624 10.8334C23.5624 11.2821 23.1987 11.6459 22.7499 11.6459H16.7916C15.7445 11.6459 14.8958 12.4947 14.8958 13.5417V14.625C14.8958 15.6721 15.7445 16.5209 16.7916 16.5209H22.7499C23.1987 16.5209 23.5624 16.8846 23.5624 17.3334C23.5624 17.7821 23.1987 18.1459 22.7499 18.1459H16.7916C14.8471 18.1459 13.2708 16.5695 13.2708 14.625V13.5417Z" fill="#12131A"/>
<path d="M19.4999 14.0833C19.4999 14.6816 19.0149 15.1667 18.4166 15.1667C17.8183 15.1667 17.3333 14.6816 17.3333 14.0833C17.3333 13.485 17.8183 13 18.4166 13C19.0149 13 19.4999 13.485 19.4999 14.0833Z" fill="#12131A"/>
<path d="M15.1667 7.58333C15.1667 8.18164 14.6816 8.66667 14.0833 8.66667C13.485 8.66667 13 8.18164 13 7.58333C13 6.98502 13.485 6.5 14.0833 6.5C14.6816 6.5 15.1667 6.98502 15.1667 7.58333Z" fill="#12131A"/>
<path fill-rule="evenodd" clip-rule="evenodd" d="M5.6875 7.58337C5.6875 7.13464 6.05127 6.77087 6.5 6.77087H10.8333C11.2821 6.77087 11.6458 7.13464 11.6458 7.58337C11.6458 8.03211 11.2821 8.39587 10.8333 8.39587H6.5C6.05127 8.39587 5.6875 8.03211 5.6875 7.58337Z" fill="#12131A"/>
</svg>
