<svg xmlns="http://www.w3.org/2000/svg" version="1.1" xmlns:xlink="http://www.w3.org/1999/xlink" width="512" height="512" x="0" y="0" viewBox="0 0 512 512" style="enable-background:new 0 0 512 512" xml:space="preserve" class=""><g><path d="M502.689 173.322c-6.538-6.351-15.523-9.444-24.634-8.504-14.251 1.477-25.715 12.891-27.258 27.139a30.945 30.945 0 0 0 1.511 13.445l-42.632 31.555-12.89-63.749a30.72 30.72 0 0 0 14.968-20.498c3.169-15.196-5.537-30.379-20.25-35.316-8.141-2.731-16.777-2.008-24.317 2.04a30.815 30.815 0 0 0-15.137 19.103c-2.175 8.122-.978 16.544 3.263 23.634l-47.932 54.309-28.28-70.078 20.637-20.637c4.872-4.874 4.871-12.804-.001-17.677L264.84 73.192a12.416 12.416 0 0 0-8.84-3.663 12.42 12.42 0 0 0-8.839 3.661l-34.897 34.897c-2.361 2.36-3.662 5.5-3.662 8.839s1.3 6.478 3.661 8.84l20.634 20.635-28.28 70.077-12.745-14.441a7.5 7.5 0 0 0-11.246 9.926l17.714 20.07-23.613 58.514-59.093-43.739 14.969-74.035c.997-4.927-1.629-9.876-6.244-11.769-4.58-1.879-7.94-5.693-9.218-10.465a15.717 15.717 0 0 1 2.023-12.649c2.472-3.785 6.327-6.251 10.854-6.943 7.185-1.104 14.491 3.23 16.995 10.068 1.887 5.152 1.014 10.801-2.335 15.109-3.076 3.957-2.879 9.58.466 13.37l13.651 15.468a7.5 7.5 0 0 0 11.246-9.926l-11.359-12.87c4.716-7.905 5.647-17.486 2.416-26.31-4.99-13.628-19.012-21.926-33.348-19.738-8.672 1.327-16.379 6.272-21.145 13.568a30.738 30.738 0 0 0-3.954 24.734c2.166 8.085 7.384 14.763 14.559 18.79l-12.888 63.744L59.691 205.4a30.967 30.967 0 0 0 1.511-13.444c-1.543-14.25-13.008-25.664-27.261-27.14-9.12-.943-18.1 2.157-24.638 8.511-6.539 6.354-9.898 15.231-9.216 24.355 1.069 14.313 12.186 26.117 26.435 28.067 1.23.167 2.471.261 3.708.28l39.027 177.485v75.085c0 6.893 5.607 12.5 12.5 12.5h238.242c4.143 0 7.5-3.357 7.5-7.5s-3.357-7.5-7.5-7.5H84.257v-65.9H427.74v65.9h-72.741c-4.143 0-7.5 3.357-7.5 7.5s3.357 7.5 7.5 7.5h75.241c6.893 0 12.5-5.607 12.5-12.5V403.52l39.029-177.492a31.065 31.065 0 0 0 3.724-.282c14.247-1.956 25.358-13.766 26.422-28.082.676-9.118-2.686-17.992-9.226-24.342zm-133.817-3.848c3.336-3.78 3.526-9.391.452-13.341-3.054-3.924-4.068-8.923-2.785-13.716 1.133-4.228 3.883-7.697 7.741-9.769 3.856-2.068 8.278-2.437 12.452-1.035 7.389 2.479 11.929 10.4 10.338 18.032a15.732 15.732 0 0 1-9.418 11.354c-4.623 1.899-7.252 6.864-6.252 11.804l14.964 74.007-59.092 43.738-23.613-58.514zM82.787 395.202l-38.349-174.4c-1.321-6.009-6.748-10.157-12.893-9.789-.99.051-1.999.012-2.993-.123-7.281-.996-12.961-7.02-13.507-14.322-.35-4.682 1.368-9.23 4.712-12.48 3.343-3.25 7.947-4.837 12.639-4.349 7.264.752 13.107 6.57 13.894 13.834.297 2.746-.087 5.396-1.141 7.879-2.253 5.309-.572 11.426 4.087 14.874l119.692 88.592-36.434 90.285H82.787zm414.168-198.645c-.542 7.305-6.222 13.332-13.5 14.331-1 .137-2.009.183-3.004.123a12.45 12.45 0 0 0-12.891 9.79l-38.35 174.4h-49.707l-14.532-36.008a7.497 7.497 0 0 0-9.762-4.148 7.5 7.5 0 0 0-4.148 9.762l12.267 30.395h-214.66l98.756-244.721c1.881-4.66.8-9.966-2.752-13.517l-20.037-20.038 31.362-31.361 31.362 31.362-20.037 20.036a12.484 12.484 0 0 0-2.753 13.517l73.175 181.327a7.5 7.5 0 0 0 13.91-5.614l-8.586-21.276 119.693-88.593c4.66-3.448 6.341-9.565 4.088-14.873-1.055-2.484-1.438-5.136-1.142-7.88.787-7.263 6.63-13.081 13.893-13.834 4.692-.482 9.293 1.098 12.637 4.345 3.346 3.249 5.066 7.795 4.718 12.475z" fill="#cebc1f" opacity="1" data-original="#cebc1f"></path><path d="M264.517 266.077a10.526 10.526 0 0 0-8.518-4.36 10.53 10.53 0 0 0-8.518 4.36l-25.045 34.739a10.504 10.504 0 0 0-.065 12.187l25.044 35.548a10.513 10.513 0 0 0 8.583 4.452H256a10.51 10.51 0 0 0 8.581-4.453L289.629 313a10.504 10.504 0 0 0-.068-12.186zm-8.518 68.612-19.519-27.704 19.519-27.073 19.519 27.074z" fill="#cebc1f" opacity="1" data-original="#cebc1f"></path><circle cx="120.999" cy="441.78" r="7.5" fill="#cebc1f" opacity="1" data-original="#cebc1f"></circle><circle cx="174.999" cy="441.78" r="7.5" fill="#cebc1f" opacity="1" data-original="#cebc1f"></circle><circle cx="228.999" cy="441.78" r="7.5" fill="#cebc1f" opacity="1" data-original="#cebc1f"></circle><circle cx="282.999" cy="441.78" r="7.5" fill="#cebc1f" opacity="1" data-original="#cebc1f"></circle><circle cx="336.999" cy="441.78" r="7.5" fill="#cebc1f" opacity="1" data-original="#cebc1f"></circle><circle cx="390.999" cy="441.78" r="7.5" fill="#cebc1f" opacity="1" data-original="#cebc1f"></circle><path d="M142.656 69.424c12.509 4.359 16.875 8.725 21.233 21.233 1.492 4.281 5.538 7.158 10.068 7.158s8.576-2.877 10.068-7.158c4.358-12.509 8.724-16.874 21.233-21.233 4.281-1.491 7.157-5.537 7.157-10.067s-2.876-8.576-7.157-10.067c-12.509-4.359-16.875-8.725-21.233-21.233-1.492-4.281-5.538-7.158-10.068-7.158s-8.576 2.877-10.068 7.158c-4.358 12.509-8.724 16.874-21.233 21.233-4.281 1.491-7.157 5.537-7.157 10.067s2.876 8.576 7.157 10.067zm31.301-26.783c4.001 7.604 9.111 12.714 16.716 16.716-7.605 4.002-12.714 9.111-16.716 16.716-4.002-7.604-9.112-12.714-16.716-16.716 7.605-4.002 12.715-9.111 16.716-16.716zM307.739 96.424c12.51 4.358 16.876 8.725 21.233 21.233 1.492 4.281 5.538 7.158 10.068 7.158s8.576-2.877 10.068-7.159c4.356-12.508 8.723-16.873 21.232-21.232 4.281-1.491 7.157-5.537 7.157-10.067s-2.876-8.576-7.157-10.067c-12.51-4.359-16.876-8.725-21.232-21.232l-.001-.001c-1.491-4.281-5.537-7.158-10.067-7.158s-8.576 2.877-10.067 7.158c-4.358 12.509-8.725 16.875-21.234 21.233-4.281 1.491-7.157 5.537-7.157 10.067s2.876 8.576 7.157 10.067zm31.302-26.783c4.001 7.604 9.111 12.714 16.716 16.716-7.604 4.002-12.715 9.112-16.716 16.716-4.002-7.604-9.111-12.714-16.717-16.716 7.606-4.002 12.715-9.11 16.717-16.716z" fill="#cebc1f" opacity="1" data-original="#cebc1f"></path></g></svg>